RBDS001runT45_grf
version=1
nRows=30
nColumns=19
inDegrees=no
endheader
time	ground_force_r_vx	ground_force_r_vy	ground_force_r_vz	ground_force_r_px	ground_force_r_py	ground_force_r_pz	ground_torque_r_x	ground_torque_r_y	ground_torque_r_z	ground_force_l_vx	ground_force_l_vy	ground_force_l_vz	ground_force_l_px	ground_force_l_py	ground_force_l_pz	ground_torque_l_x	ground_torque_l_y	ground_torque_l_z
     22.50000000	      0.00000000	      0.00000000	      0.00000000	      0.00000000	      0.00000000	      0.00000000	      0.00000000	      0.00000000	      0.00000000	      0.00000000	      0.00000000	      0.00000000	      0.00000000	      0.00000000	      0.00000000	      0.00000000	      0.00000000	      0.00000000
     22.50333333	      0.00000000	      0.00000000	      0.00000000	      0.00000000	      0.00000000	      0.00000000	      0.00000000	      0.00000000	      0.00000000	      0.00000000	      0.00000000	      0.00000000	      0.00000000	      0.00000000	      0.00000000	      0.00000000	      0.00000000	      0.00000000
     22.50666667	      0.00000000	      0.00000000	      0.00000000	      0.00000000	      0.00000000	      0.00000000	      0.00000000	      0.00000000	      0.00000000	      0.00000000	      0.00000000	      0.00000000	      0.00000000	      0.00000000	      0.00000000	      0.00000000	      0.00000000	      0.00000000
     22.51000000	      0.00000000	      0.00000000	      0.00000000	      0.00000000	      0.00000000	      0.00000000	      0.00000000	      0.00000000	      0.00000000	     -0.00000000	      0.00000000	      0.00000000	      0.00000000	      0.00000000	      0.00000000	      0.00000000	      0.00000000	     -0.00000000
     22.51333333	      0.00000000	      0.00000000	      0.00000000	      0.00000000	      0.00000000	      0.00000000	      0.00000000	      0.00000000	      0.00000000	    -39.17084529	    117.58083559	     19.66191576	      3.12078535	      0.00000000	      0.58026814	      0.19088567	      0.34161658	     -0.52297539
     22.51666667	      0.00000000	      0.00000000	      0.00000000	      0.00000000	      0.00000000	      0.00000000	      0.00000000	      0.00000000	      0.00000000	    -51.30978537	    161.89668937	     22.67221068	      3.12515956	      0.00000000	      1.13514140	      0.09994815	      0.43809398	     -0.48598986
     22.52000000	      0.00000000	      0.00000000	      0.00000000	      0.00000000	      0.00000000	      0.00000000	      0.00000000	      0.00000000	      0.00000000	    -64.88904133	    213.34039071	     25.41092984	      2.24222175	      0.00000000	      0.87935880	      0.00118156	      0.56381735	     -0.43962191
     22.52333333	      0.00000000	      0.00000000	      0.00000000	      0.00000000	      0.00000000	      0.00000000	      0.00000000	      0.00000000	      0.00000000	    -79.70399337	    271.74151059	     27.65563341	      2.62281398	      0.00000000	      1.01353565	     -0.10452649	      0.72219800	     -0.38090714
     22.52666667	      0.00000000	      0.00000000	      0.00000000	      0.00000000	      0.00000000	      0.00000000	      0.00000000	      0.00000000	      0.00000000	    -95.45620431	    336.61066164	     29.13994850	      2.82533260	      0.00000000	      1.02951667	     -0.21400774	      0.91504538	     -0.30729149
     22.53000000	      0.00000000	      0.00000000	      0.00000000	      0.00000000	      0.00000000	      0.00000000	      0.00000000	      0.00000000	      0.00000000	   -111.77691979	    407.16103724	     29.57417237	      2.59356152	      0.00000000	      1.00887332	     -0.32004468	      1.13462843	     -0.21763072
     22.53333333	      0.00000000	      0.00000000	      0.00000000	      0.00000000	      0.00000000	      0.00000000	      0.00000000	      0.00000000	      0.00000000	   -128.24792292	    482.35801584	     28.68324605	      2.65442338	      0.00000000	      0.99238991	     -0.41096765	      1.35409415	     -0.11383585
     22.53666667	      0.00000000	      0.00000000	      0.00000000	      0.00000000	      0.00000000	      0.00000000	      0.00000000	      0.00000000	      0.00000000	   -144.46910269	    560.99898838	     26.24571171	      2.62691823	      0.00000000	      1.01172622	     -0.47474917	      1.52925380	     -0.00085514
     22.54000000	      0.00000000	      0.00000000	      0.00000000	      0.00000000	      0.00000000	      0.00000000	      0.00000000	      0.00000000	      0.00000000	   -160.15968108	    641.82717543	     22.13166743	      2.60262938	      0.00000000	      1.04004755	     -0.50326102	      1.60952002	      0.11521301
     22.54333333	      0.00000000	      0.00000000	      0.00000000	      0.00000000	      0.00000000	      0.00000000	      0.00000000	      0.00000000	      0.00000000	   -175.16723948	    723.66718561	     16.34300024	      2.61406151	      0.00000000	      1.01856857	     -0.49188984	      1.54467100	      0.22790533
     22.54666667	      0.00000000	      0.00000000	      0.00000000	      0.00000000	      0.00000000	      0.00000000	      0.00000000	      0.00000000	      0.00000000	   -189.37898629	    805.51954563	      9.02665730	      2.59942242	      0.00000000	      1.02782907	     -0.44016997	      1.30222804	      0.33089986
     22.55000000	      0.00000000	      0.00000000	      0.00000000	      0.00000000	      0.00000000	      0.00000000	      0.00000000	      0.00000000	      0.00000000	   -202.62351108	    886.53288136	      0.45205747	      2.61005815	      0.00000000	      1.05052218	     -0.35609416	      0.89954644	      0.42008207
     22.55333333	      0.00000000	      0.00000000	      0.00000000	      0.00000000	      0.00000000	      0.00000000	      0.00000000	      0.00000000	      0.00000000	   -214.59271256	    965.90095288	     -9.00788954	      2.57092441	      0.00000000	      1.04636807	     -0.25583379	      0.40494371	      0.49405726
     22.55666667	      0.00000000	      0.00000000	      0.00000000	      0.00000000	      0.00000000	      0.00000000	      0.00000000	      0.00000000	      0.00000000	   -224.84190769	   1042.82374913	    -18.90528715	      2.56699200	      0.00000000	      1.04679451	     -0.15602624	     -0.10540946	      0.55227671
     22.56000000	      0.00000000	      0.00000000	      0.00000000	      0.00000000	      0.00000000	      0.00000000	      0.00000000	      0.00000000	      0.00000000	   -232.90309366	   1116.55358017	    -28.78905533	      2.53938823	      0.00000000	      1.05676307	     -0.06625218	     -0.58459341	      0.59445544
     22.56333333	      0.00000000	      0.00000000	      0.00000000	      0.00000000	      0.00000000	      0.00000000	      0.00000000	      0.00000000	      0.00000000	   -238.41458621	   1186.44868510	    -38.24856962	      2.54083584	      0.00000000	      1.05701323	      0.01140094	     -1.01390671	      0.62122500
     22.56666667	      0.00000000	      0.00000000	      0.00000000	      0.00000000	      0.00000000	      0.00000000	      0.00000000	      0.00000000	      0.00000000	   -241.17812657	   1251.99171128	    -46.88035494	      2.53348844	      0.00000000	      1.05874298	      0.07623957	     -1.37757186	      0.63345855
     22.57000000	      0.00000000	      0.00000000	      0.00000000	      0.00000000	      0.00000000	      0.00000000	      0.00000000	      0.00000000	      0.00000000	   -241.14721628	   1312.77046439	    -54.27582064	      2.52078791	      0.00000000	      1.06728557	      0.12364545	     -1.64269475	      0.63098589
     22.57333333	      0.00000000	      0.00000000	      0.00000000	      0.00000000	      0.00000000	      0.00000000	      0.00000000	      0.00000000	      0.00000000	   -238.38355264	   1368.44962536	    -60.08473725	      2.50789577	      0.00000000	      1.05614376	      0.14633610	     -1.76496707	      0.61271813
     22.57666667	      0.00000000	      0.00000000	      0.00000000	      0.00000000	      0.00000000	      0.00000000	      0.00000000	      0.00000000	      0.00000000	   -233.01339594	   1418.75753975	    -64.07716007	      2.46247012	      0.00000000	      1.06640435	      0.13952902	     -1.71266630	      0.57819634
     22.58000000	      0.00000000	      0.00000000	      0.00000000	      0.00000000	      0.00000000	      0.00000000	      0.00000000	      0.00000000	      0.00000000	   -225.19160155	   1463.47753893	    -66.16675731	      2.46649280	      0.00000000	      1.05534873	      0.10420544	     -1.48498502	      0.52904653
     22.58333333	      0.00000000	      0.00000000	      0.00000000	      0.00000000	      0.00000000	      0.00000000	      0.00000000	      0.00000000	      0.00000000	   -215.07869067	   1502.44405231	    -66.42650359	      2.48050985	      0.00000000	      1.06471763	      0.04667850	     -1.11168542	      0.46919132
     22.58666667	      0.00000000	      0.00000000	      0.00000000	      0.00000000	      0.00000000	      0.00000000	      0.00000000	      0.00000000	      0.00000000	   -202.84019421	   1535.54775445	    -65.07683035	      2.42930811	      0.00000000	      1.07131846	     -0.02416906	     -0.63690900	      0.40372651
     22.59000000	      0.00000000	      0.00000000	      0.00000000	      0.00000000	      0.00000000	      0.00000000	      0.00000000	      0.00000000	      0.00000000	   -188.65202869	   1562.73500274	    -62.41907737	      2.45860435	      0.00000000	      1.06353931	     -0.09953780	     -0.10235181	      0.33743124
     22.59333333	      0.00000000	      0.00000000	      0.00000000	      0.00000000	      0.00000000	      0.00000000	      0.00000000	      0.00000000	      0.00000000	   -172.69998564	   1584.01177778	    -58.76704553	      2.39499282	      0.00000000	      1.05472983	     -0.17163880	      0.45813601	      0.27403884
     22.59666667	      0.00000000	      0.00000000	      0.00000000	      0.00000000	      0.00000000	      0.00000000	      0.00000000	      0.00000000	      0.00000000	   -155.18328766	   1599.45922803	    -54.42293657	      2.39451271	      0.00000000	      1.05823115	     -0.23389964	      1.01843595	      0.21607388
